<svg width="256" height="256" viewBox="0 0 256 256" xmlns="http://www.w3.org/2000/svg">
  <defs>
    <!-- 主要渐变 - 蓝紫色到青色 -->
    <linearGradient id="mainGradient" x1="0%" y1="0%" x2="100%" y2="100%">
      <stop offset="0%" style="stop-color:#667eea;stop-opacity:1" />
      <stop offset="50%" style="stop-color:#764ba2;stop-opacity:1" />
      <stop offset="100%" style="stop-color:#f093fb;stop-opacity:1" />
    </linearGradient>
    
    <!-- 闪电渐变 - 金黄色 -->
    <linearGradient id="lightningGradient" x1="0%" y1="0%" x2="100%" y2="100%">
      <stop offset="0%" style="stop-color:#ffd700;stop-opacity:1" />
      <stop offset="100%" style="stop-color:#ffb347;stop-opacity:1" />
    </linearGradient>
    
    <!-- 阴影滤镜 -->
    <filter id="shadow" x="-20%" y="-20%" width="140%" height="140%">
      <feDropShadow dx="2" dy="4" stdDeviation="3" flood-color="rgba(0,0,0,0.3)"/>
    </filter>
    
    <!-- 发光效果 -->
    <filter id="glow" x="-50%" y="-50%" width="200%" height="200%">
      <feGaussianBlur stdDeviation="3" result="coloredBlur"/>
      <feMerge> 
        <feMergeNode in="coloredBlur"/>
        <feMergeNode in="SourceGraphic"/> 
      </feMerge>
    </filter>
  </defs>
  
  <!-- 背景圆形 -->
  <circle cx="128" cy="128" r="120" fill="url(#mainGradient)" filter="url(#shadow)"/>
  
  <!-- 数据库底座 -->
  <g transform="translate(128, 128)">
    <!-- 数据库圆柱体底部 -->
    <ellipse cx="0" cy="35" rx="45" ry="12" fill="rgba(255,255,255,0.9)" opacity="0.8"/>
    
    <!-- 数据库圆柱体中间 -->
    <rect x="-45" y="15" width="90" height="40" fill="rgba(255,255,255,0.85)" opacity="0.8"/>
    
    <!-- 数据库圆柱体顶部 -->
    <ellipse cx="0" cy="15" rx="45" ry="12" fill="rgba(255,255,255,0.95)" opacity="0.9"/>
    
    <!-- 数据库分层线 -->
    <ellipse cx="0" cy="25" rx="45" ry="12" fill="none" stroke="rgba(102,126,234,0.3)" stroke-width="1.5"/>
    
    <!-- 闪电图标 -->
    <g transform="translate(-8, -45)">
      <path d="M 0 0 L 12 0 L 4 20 L 16 20 L 0 40 L 8 20 L -4 20 Z" 
            fill="url(#lightningGradient)" 
            filter="url(#glow)"
            transform="scale(1.2)"/>
    </g>
    
    <!-- 速度线条效果 -->
    <g opacity="0.6">
      <path d="M -35 -20 Q -25 -25 -15 -20" stroke="rgba(255,255,255,0.8)" stroke-width="2" fill="none" stroke-linecap="round"/>
      <path d="M -30 -10 Q -20 -15 -10 -10" stroke="rgba(255,255,255,0.6)" stroke-width="1.5" fill="none" stroke-linecap="round"/>
      <path d="M -25 0 Q -15 -5 -5 0" stroke="rgba(255,255,255,0.4)" stroke-width="1" fill="none" stroke-linecap="round"/>
    </g>
    
    <!-- 数据点装饰 -->
    <g opacity="0.7">
      <circle cx="25" cy="-30" r="2" fill="rgba(255,255,255,0.9)"/>
      <circle cx="35" cy="-15" r="1.5" fill="rgba(255,255,255,0.7)"/>
      <circle cx="30" cy="5" r="1" fill="rgba(255,255,255,0.5)"/>
    </g>
  </g>
  
  <!-- 外圈装饰 -->
  <circle cx="128" cy="128" r="115" fill="none" stroke="rgba(255,255,255,0.2)" stroke-width="1"/>
  <circle cx="128" cy="128" r="110" fill="none" stroke="rgba(255,255,255,0.1)" stroke-width="0.5"/>
</svg>