<svg width="512" height="512" viewBox="0 0 512 512" xmlns="http://www.w3.org/2000/svg">
  <defs>
    <!-- 主要渐变 -->
    <linearGradient id="mainGradient" x1="0%" y1="0%" x2="100%" y2="100%">
      <stop offset="0%" style="stop-color:#667eea;stop-opacity:1" />
      <stop offset="50%" style="stop-color:#764ba2;stop-opacity:1" />
      <stop offset="100%" style="stop-color:#f093fb;stop-opacity:1" />
    </linearGradient>
    
    <!-- 闪电渐变 -->
    <linearGradient id="lightningGradient" x1="0%" y1="0%" x2="100%" y2="100%">
      <stop offset="0%" style="stop-color:#ffd700;stop-opacity:1" />
      <stop offset="100%" style="stop-color:#ffb347;stop-opacity:1" />
    </linearGradient>
    
    <!-- 阴影滤镜 -->
    <filter id="shadow" x="-20%" y="-20%" width="140%" height="140%">
      <feDropShadow dx="4" dy="8" stdDeviation="6" flood-color="rgba(0,0,0,0.3)"/>
    </filter>
    
    <!-- 发光效果 -->
    <filter id="glow" x="-50%" y="-50%" width="200%" height="200%">
      <feGaussianBlur stdDeviation="6" result="coloredBlur"/>
      <feMerge> 
        <feMergeNode in="coloredBlur"/>
        <feMergeNode in="SourceGraphic"/> 
      </feMerge>
    </filter>
  </defs>
  
  <!-- 背景圆形 -->
  <circle cx="256" cy="256" r="240" fill="url(#mainGradient)" filter="url(#shadow)"/>
  
  <!-- 主要内容 -->
  <g transform="translate(256, 256)">
    <!-- 数据库底座 -->
    <ellipse cx="0" cy="70" rx="90" ry="24" fill="rgba(255,255,255,0.9)" opacity="0.8"/>
    <rect x="-90" y="30" width="180" height="80" fill="rgba(255,255,255,0.85)" opacity="0.8"/>
    <ellipse cx="0" cy="30" rx="90" ry="24" fill="rgba(255,255,255,0.95)" opacity="0.9"/>
    <ellipse cx="0" cy="50" rx="90" ry="24" fill="none" stroke="rgba(102,126,234,0.3)" stroke-width="3"/>
    
    <!-- 闪电图标 -->
    <g transform="translate(-16, -90)">
      <path d="M 0 0 L 24 0 L 8 40 L 32 40 L 0 80 L 16 40 L -8 40 Z" 
            fill="url(#lightningGradient)" 
            filter="url(#glow)"
            transform="scale(1.5)"/>
    </g>
    
    <!-- 速度线条效果 -->
    <g opacity="0.6">
      <path d="M -70 -40 Q -50 -50 -30 -40" stroke="rgba(255,255,255,0.8)" stroke-width="4" fill="none" stroke-linecap="round"/>
      <path d="M -60 -20 Q -40 -30 -20 -20" stroke="rgba(255,255,255,0.6)" stroke-width="3" fill="none" stroke-linecap="round"/>
      <path d="M -50 0 Q -30 -10 -10 0" stroke="rgba(255,255,255,0.4)" stroke-width="2" fill="none" stroke-linecap="round"/>
    </g>
    
    <!-- 数据点装饰 -->
    <g opacity="0.7">
      <circle cx="50" cy="-60" r="4" fill="rgba(255,255,255,0.9)"/>
      <circle cx="70" cy="-30" r="3" fill="rgba(255,255,255,0.7)"/>
      <circle cx="60" cy="10" r="2" fill="rgba(255,255,255,0.5)"/>
    </g>
  </g>
  
  <!-- 外圈装饰 -->
  <circle cx="256" cy="256" r="230" fill="none" stroke="rgba(255,255,255,0.2)" stroke-width="2"/>
  <circle cx="256" cy="256" r="220" fill="none" stroke="rgba(255,255,255,0.1)" stroke-width="1"/>
</svg>